<?xml version="1.0" standalone="no"?>
<!DOCTYPE svg PUBLIC "-//W3C//DTD SVG 20010904//EN"
 "http://www.w3.org/TR/2001/REC-SVG-20010904/DTD/svg10.dtd">
<svg version="1.0" xmlns="http://www.w3.org/2000/svg"
 width="155px" height="85px" viewBox="0 0 1920.000000 1080.000000"
 preserveAspectRatio="xMidYMid meet">
<metadata>
Created by potrace 1.16, written by Peter Selinger 2001-2019
</metadata>
<g transform="translate(0.000000,1080.000000) scale(0.100000,-0.100000)"
fill="#000000" stroke="none">
<path d="M1795 8953 c-390 -33 -547 -142 -615 -424 -34 -143 -43 -279 -37
-572 4 -227 9 -288 27 -371 52 -242 137 -349 335 -421 44 -17 84 -38 95 -52
24 -31 7 52 310 -1503 143 -734 274 -1389 290 -1454 47 -186 93 -270 283 -522
234 -310 300 -369 467 -417 155 -45 245 -52 670 -52 425 0 515 7 670 52 179
51 267 133 340 319 17 42 159 548 316 1123 157 575 290 1059 296 1074 21 54
41 59 189 47 165 -13 175 -15 181 -38 8 -31 -91 -534 -111 -562 -18 -25 -31
-33 -156 -91 -129 -60 -210 -169 -256 -344 -16 -60 -22 -123 -26 -250 -10
-324 45 -492 197 -598 30 -20 90 -49 134 -63 143 -45 246 -55 623 -62 409 -8
388 -3 373 -97 -13 -80 -13 -326 0 -412 32 -208 128 -356 273 -423 98 -45 200
-62 377 -63 183 0 263 11 469 64 311 80 360 110 583 353 29 31 50 47 60 44 8
-4 29 -48 47 -100 80 -228 192 -312 474 -354 93 -14 161 -16 397 -11 844 18
1080 80 1199 318 60 119 75 203 76 409 0 96 -2 207 -4 245 -4 49 -1 77 9 92 8
12 60 47 115 77 197 107 349 217 517 374 48 45 100 85 115 88 28 7 48 1 172
-51 35 -15 107 -36 159 -46 52 -11 101 -24 109 -30 14 -12 22 -39 49 -159 29
-133 78 -218 257 -456 234 -310 300 -369 467 -417 170 -49 226 -52 1090 -52
847 0 911 3 1079 47 103 27 180 70 241 134 81 86 122 196 150 402 20 146 20
146 143 112 109 -30 281 -50 440 -50 237 0 383 24 611 102 185 62 204 62 314
-10 177 -117 360 -170 642 -187 115 -7 324 8 434 31 223 47 416 146 555 284
168 169 241 374 241 680 0 418 -131 618 -435 668 -134 22 -134 20 -105 199 69
439 180 834 315 1128 94 205 105 249 112 455 16 517 -150 681 -692 681 -379
-1 -665 -92 -867 -278 -34 -31 -63 -50 -72 -47 -17 7 -28 34 -56 137 -28 108
-59 163 -124 225 -92 87 -200 124 -422 144 -132 12 -270 7 -647 -22 -139 -11
-221 -5 -387 30 -52 11 -153 23 -225 26 -77 4 -142 12 -161 20 -18 9 -43 36
-64 72 -53 87 -395 539 -459 605 -101 104 -198 151 -381 183 -127 22 -744 32
-934 14 -151 -14 -289 -46 -366 -85 -73 -37 -159 -121 -222 -218 -29 -44 -296
-469 -593 -946 -616 -988 -559 -914 -690 -892 -150 25 -172 36 -259 123 -122
124 -230 166 -466 183 -103 8 -271 -6 -367 -30 -85 -22 -188 -77 -294 -157
-51 -39 -113 -80 -138 -91 -43 -19 -52 -19 -171 -7 -194 20 -408 10 -547 -26
-157 -39 -148 -53 -149 224 -1 287 -27 412 -109 524 -99 134 -270 193 -560
192 -152 -1 -196 -6 -365 -45 -89 -21 -126 -22 -565 -26 -465 -5 -585 1 -699
29 -63 16 -81 45 -101 159 -20 115 -41 181 -81 261 -43 85 -406 571 -486 649
-104 103 -246 155 -482 178 -100 10 -3031 14 -3141 4z m1526 -300 c12 -9 24
-9 58 3 37 12 146 14 750 12 l708 -3 31 -25 c51 -41 481 -619 493 -664 6 -24
9 -135 7 -290 -4 -333 -3 -331 -193 -361 -167 -27 -212 -60 -280 -208 -22 -49
-168 -567 -450 -1602 -230 -841 -424 -1542 -433 -1557 -33 -57 -39 -58 -522
-58 -376 0 -447 2 -473 15 -22 11 -93 96 -222 265 -104 138 -198 265 -208 283
-14 25 -383 1886 -616 3107 -11 58 -28 126 -37 152 -32 84 -34 85 -189 108
-228 33 -219 18 -223 390 -2 157 -1 304 3 327 8 52 45 100 88 112 51 15 1690
9 1708 -6z m10064 -6 c33 -20 477 -604 494 -650 8 -19 11 -290 11 -841 l0
-813 231 -284 c127 -156 243 -302 258 -323 l26 -40 0 -311 c0 -280 -2 -314
-18 -338 -37 -57 -55 -62 -258 -65 l-188 -4 140 -184 c77 -101 145 -199 150
-217 5 -17 9 -153 9 -302 0 -304 -4 -325 -70 -357 -33 -17 -96 -18 -898 -18
-755 0 -868 2 -895 15 -22 11 -93 96 -222 265 -104 138 -199 267 -210 287 -19
36 -20 54 -17 275 l4 237 -254 3 c-233 3 -256 5 -285 23 -17 11 -123 141 -235
289 l-203 269 -5 331 c-4 284 -3 337 11 376 21 60 1442 2339 1476 2367 15 12
39 24 53 26 14 3 214 4 445 3 388 -1 422 -2 450 -19z m1210 -903 c147 -74 167
-74 831 -18 336 28 363 27 408 -27 24 -28 31 -55 27 -104 -1 -11 -49 -117
-106 -236 -397 -825 -575 -1376 -575 -1784 0 -184 29 -273 122 -371 67 -71
113 -88 220 -82 144 8 274 83 440 256 144 149 256 313 390 568 l69 132 54 270
c122 608 208 884 315 1005 116 131 320 209 555 211 80 1 105 -3 126 -17 37
-25 54 -63 54 -121 0 -44 -6 -62 -43 -118 -219 -336 -472 -1432 -472 -2043 0
-275 55 -341 218 -265 37 17 91 49 120 71 68 52 101 63 159 54 67 -10 98 -46
113 -134 11 -59 10 -78 -5 -140 -19 -80 -71 -168 -128 -218 -148 -130 -316
-194 -507 -195 -185 0 -345 57 -451 162 -96 95 -151 215 -185 400 l-16 89
-107 -107 c-197 -200 -398 -335 -583 -396 -188 -61 -363 -69 -533 -26 -355 90
-590 406 -620 833 -26 368 131 1006 403 1635 l40 92 -70 0 c-136 0 -270 41
-348 107 -76 63 -139 200 -170 364 -20 109 14 182 92 198 46 10 60 6 163 -45z
m-8890 -290 c17 -8 39 -28 49 -44 l17 -30 805 0 806 0 41 34 c66 53 86 60 167
60 60 1 82 -4 111 -21 66 -41 74 -82 49 -241 -11 -67 -34 -233 -50 -369 -17
-135 -35 -254 -41 -265 -14 -27 -9 -29 37 -17 21 7 67 9 103 5 139 -12 217
-108 266 -324 24 -110 64 -421 90 -711 8 -90 16 -166 19 -168 7 -7 132 216
189 337 83 174 110 264 104 347 -2 37 -15 101 -28 140 -21 68 -22 78 -10 135
7 35 26 84 42 110 51 79 165 139 265 140 166 2 276 -121 296 -329 l3 -32 70
46 c39 25 120 70 181 100 l112 55 12 61 c7 34 21 76 32 94 46 77 273 251 361
278 38 11 50 11 96 -5 102 -34 133 -94 107 -208 -8 -36 -14 -67 -13 -67 1 -1
45 2 97 6 254 20 505 -48 629 -171 164 -163 217 -475 136 -804 -112 -455 -463
-856 -926 -1057 -141 -61 -230 -83 -315 -76 l-71 5 -46 -231 c-66 -339 -64
-305 -25 -311 18 -3 60 -8 93 -11 82 -8 126 -31 149 -79 18 -36 19 -48 9 -127
-7 -48 -19 -99 -28 -112 -33 -51 -63 -55 -568 -82 -259 -13 -483 -22 -497 -18
-89 23 -118 102 -89 241 17 83 52 113 154 135 103 22 141 45 167 103 11 26 80
326 153 668 74 341 166 767 204 945 39 179 69 326 67 329 -2 2 -19 -4 -37 -14
-109 -56 -204 -22 -231 83 l-11 44 -23 -71 c-14 -39 -41 -103 -60 -143 -74
-146 -379 -641 -607 -982 -361 -540 -865 -1198 -941 -1230 -17 -7 -129 -38
-250 -70 -245 -63 -275 -64 -326 -13 -38 38 -75 153 -65 205 10 54 24 71 104
125 222 151 542 447 733 678 l95 115 -8 150 c-19 338 -94 1050 -117 1107 -6
14 -14 8 -42 -31 -44 -61 -79 -83 -135 -83 -60 0 -95 24 -151 100 -43 59 -47
69 -47 122 0 53 3 62 61 146 93 136 227 279 312 335 24 16 22 16 -40 7 -72
-10 -121 -4 -156 18 -40 27 -54 75 -63 216 -9 144 -25 198 -63 219 -15 8 -87
14 -213 17 l-190 4 -182 -973 c-100 -536 -185 -999 -189 -1030 -6 -56 -6 -57
22 -63 16 -4 74 -10 129 -15 144 -13 173 -28 193 -104 8 -29 6 -55 -9 -120
-11 -45 -27 -92 -35 -105 -33 -50 -40 -51 -650 -53 -521 -1 -574 0 -607 16
-69 32 -84 85 -58 202 30 133 49 149 198 164 140 15 169 27 193 81 10 24 84
385 164 803 80 418 164 852 186 964 22 113 40 211 40 219 0 13 -23 14 -159 9
-245 -8 -253 -14 -391 -284 -45 -87 -86 -155 -101 -166 -31 -22 -123 -33 -203
-23 -43 6 -63 14 -85 36 -50 50 -49 90 9 290 28 96 73 265 101 375 27 110 54
210 60 221 30 58 178 79 264 38z"/>
<path d="M1652 8253 l3 -277 140 -21 c77 -11 150 -26 162 -33 28 -15 74 -83
97 -142 10 -25 159 -765 331 -1646 l313 -1601 192 -251 192 -252 411 2 411 3
418 1535 c364 1334 424 1547 463 1625 83 172 153 224 334 253 l111 17 0 242 0
243 -217 289 -218 290 -687 0 -687 1 -3 -146 -3 -146 -76 143 -76 144 -807 3
-806 2 2 -277z m1558 -3 c0 -93 -3 -170 -6 -170 -34 0 -215 -35 -235 -46 -72
-37 -107 -132 -95 -259 11 -119 429 -2191 438 -2169 4 10 50 179 102 374 158
592 384 1436 428 1595 35 126 42 165 43 245 0 168 -40 209 -235 243 l-120 21
0 168 0 168 578 0 577 0 -3 -167 c-2 -92 -4 -169 -5 -170 -2 -1 -47 -9 -102
-18 -101 -16 -135 -30 -168 -69 -31 -37 -74 -128 -107 -226 -17 -53 -217 -777
-444 -1610 l-413 -1515 -321 -3 -322 -2 -5 22 c-3 13 -138 703 -300 1533 -162
831 -304 1539 -316 1575 -26 80 -70 167 -104 208 -44 52 -83 69 -200 87 l-110
17 3 169 3 169 719 0 720 0 0 -170z m486 -817 c-3 -10 -41 -157 -86 -328 -44
-170 -84 -323 -89 -340 -8 -28 -9 -29 -10 -5 -1 14 -17 108 -37 210 -56 295
-43 407 56 458 58 29 175 33 166 5z"/>
<path d="M1862 8253 l3 -67 89 -18 c48 -10 103 -27 121 -38 88 -55 168 -186
218 -362 14 -47 74 -328 133 -625 59 -296 109 -540 110 -542 1 -1 13 4 26 13
27 19 89 20 138 2 32 -12 35 -16 33 -50 -3 -44 -54 -167 -92 -220 l-28 -39 57
-121 c73 -153 168 -393 261 -658 40 -114 74 -206 75 -205 2 1 -2 50 -8 107
-15 140 -16 693 -1 793 l11 79 -67 66 c-60 60 -127 147 -160 209 -10 20 -8 24
18 38 38 19 101 19 146 1 22 -10 35 -11 35 -4 0 5 -48 247 -107 537 -107 523
-107 527 -108 671 0 131 2 150 23 195 27 58 72 109 113 126 16 6 69 19 117 28
l87 16 3 68 3 67 -626 0 -626 0 3 -67z m701 -546 c56 -161 140 -364 216 -523
l78 -161 -33 -98 c-18 -55 -38 -131 -44 -169 -6 -39 -15 -89 -19 -111 l-7 -40
-33 65 c-56 109 -108 194 -169 277 l-59 79 15 89 c10 63 15 176 16 382 1 161
3 293 6 293 3 0 18 -37 33 -83z"/>
<path d="M3632 8248 l3 -73 93 -17 c169 -31 237 -96 262 -252 18 -114 -1 -208
-156 -774 -79 -290 -144 -528 -144 -530 0 -1 13 4 30 13 38 19 84 19 115 -1
28 -19 24 -26 55 91 53 198 214 783 250 906 77 268 150 429 225 498 43 40 82
56 169 67 l46 7 0 68 0 69 -475 0 -476 0 3 -72z"/>
<path d="M3748 6480 c-9 -6 -28 -11 -42 -12 -14 -1 -28 -9 -31 -18 -2 -8 -56
-211 -120 -450 -63 -239 -122 -450 -132 -467 -39 -78 -150 -95 -211 -33 -23
23 -33 52 -64 201 l-38 174 6 -155 c3 -85 9 -206 15 -268 5 -62 6 -131 3 -153
-17 -102 -149 -142 -222 -66 -23 24 -48 83 -103 239 -40 114 -74 207 -75 205
-2 -2 36 -204 84 -450 l87 -447 219 2 220 3 231 847 c232 849 235 859 197 858
-4 0 -15 -5 -24 -10z"/>
<path d="M12486 8478 c-18 -29 -342 -549 -719 -1155 l-687 -1101 0 -302 0
-301 142 -187 c78 -103 166 -217 195 -254 l54 -68 294 0 295 0 0 -290 0 -291
191 -249 190 -250 835 0 834 0 0 252 0 252 -175 232 -175 231 0 56 0 57 258 2
257 3 3 265 2 266 -260 319 -259 320 -1 829 0 830 -221 293 -222 293 -399 0
-398 0 -34 -52z m714 -1178 l0 -1120 260 0 260 0 0 -225 0 -225 -260 0 -260 0
0 -132 c0 -272 31 -444 92 -514 42 -48 88 -69 183 -83 44 -7 88 -15 98 -17 15
-5 17 -22 17 -175 l0 -169 -710 0 -710 0 0 169 c0 192 -11 172 100 191 95 16
123 27 159 62 76 74 101 180 108 466 l6 202 -677 0 -676 0 0 222 0 222 144
230 c79 127 298 479 486 781 663 1064 723 1160 747 1198 l23 37 305 0 305 0 0
-1120z"/>
<path d="M12630 8258 c-678 -1080 -1037 -1654 -1035 -1656 1 -1 21 5 45 13 56
20 123 19 166 -1 19 -9 36 -15 38 -13 1 2 114 184 251 404 358 577 388 622
431 642 32 16 38 16 62 2 49 -27 51 -48 51 -566 1 -266 3 -483 5 -483 2 0 17
7 32 15 37 19 95 19 140 0 32 -13 35 -18 29 -42 -7 -33 -72 -144 -118 -205
-18 -24 -36 -48 -40 -54 -4 -6 13 -72 37 -145 64 -196 113 -462 132 -717 4
-51 10 -94 13 -97 4 -2 12 54 19 124 25 265 80 538 145 725 l35 100 -46 60
c-52 67 -132 203 -132 224 0 35 131 55 180 27 14 -8 28 -14 33 -15 4 0 7 387
7 860 l0 860 -220 0 -221 0 -39 -62z m248 -520 c7 -122 64 -412 103 -525 10
-31 33 -87 50 -124 l31 -68 -35 -43 c-50 -61 -103 -177 -129 -281 -12 -48 -24
-87 -28 -87 -4 0 -14 35 -23 79 -10 43 -28 105 -41 139 -24 61 -84 160 -111
182 -12 10 -10 20 14 68 71 142 142 450 154 669 3 53 12 47 15 -9z"/>
<path d="M12518 7488 c-47 -72 -808 -1299 -808 -1303 0 -3 187 -5 415 -5 l415
0 0 665 c0 366 -2 665 -4 665 -2 0 -10 -10 -18 -22z"/>
<path d="M11670 6484 c-19 -9 -58 -15 -87 -15 l-51 0 -101 -162 -101 -161 0
-143 0 -143 616 0 c674 0 661 1 701 -58 15 -23 18 -54 21 -206 6 -274 -22
-450 -89 -563 -53 -87 -118 -128 -251 -157 -26 -6 -28 -10 -28 -51 l0 -45 580
0 580 0 0 44 0 45 -57 11 c-90 17 -150 49 -203 107 -95 104 -125 237 -125 558
0 324 -9 315 309 315 l206 0 0 90 0 90 -192 0 c-136 1 -204 5 -231 14 -46 17
-44 21 -81 -145 -29 -131 -49 -271 -71 -484 -16 -155 -25 -181 -70 -211 -33
-21 -117 -21 -150 0 -47 31 -55 56 -70 227 -23 246 -55 449 -91 577 -9 28 -16
52 -17 52 -1 0 -20 -7 -42 -15 -32 -11 -119 -14 -448 -15 -428 0 -479 4 -515
43 -27 29 -42 89 -33 129 4 18 42 88 84 155 43 68 77 125 77 128 0 10 -35 4
-70 -11z"/>
<path d="M14471 7614 c61 -328 210 -407 639 -338 l40 7 -44 -95 c-252 -538
-433 -1106 -477 -1496 -15 -137 -7 -407 16 -487 33 -121 99 -237 184 -327 43
-45 104 -98 135 -117 177 -106 399 -126 613 -54 102 33 169 68 284 144 154
103 465 428 589 617 14 21 15 1 15 -210 0 -214 2 -240 23 -313 77 -266 243
-384 522 -373 86 4 119 10 182 35 132 52 245 147 283 237 13 32 22 156 10 156
-2 0 -33 -20 -68 -45 -36 -25 -96 -60 -133 -78 -62 -29 -78 -32 -161 -32 -86
0 -93 2 -130 30 -46 37 -89 119 -104 200 -17 90 -5 456 21 655 83 638 282
1365 446 1630 l45 73 -98 -6 c-230 -14 -388 -98 -462 -246 -73 -143 -156 -447
-241 -881 l-52 -265 -80 -158 c-136 -267 -314 -519 -469 -661 -282 -261 -604
-306 -794 -112 -180 185 -207 498 -84 996 89 360 296 884 546 1384 35 70 63
129 61 130 -2 2 -66 -3 -143 -10 -784 -72 -920 -68 -1068 26 -26 16 -49 30
-51 30 -2 0 0 -21 5 -46z"/>
<path d="M5545 7318 c-25 -111 -112 -449 -143 -555 -21 -73 -37 -135 -34 -138
3 -3 29 -5 59 -5 l54 0 53 113 c107 222 180 308 290 343 61 20 546 36 546 19
0 -36 -405 -2112 -421 -2163 -38 -115 -96 -151 -283 -172 -85 -9 -105 -18
-106 -46 0 -6 -3 -26 -6 -43 l-6 -31 545 0 545 0 11 51 c6 29 10 54 7 56 -2 2
-45 8 -97 14 -213 22 -258 60 -246 206 3 36 92 530 198 1099 l194 1034 215 0
c232 0 320 -10 381 -41 68 -34 103 -133 114 -321 l7 -114 57 4 c31 2 58 6 59
8 2 1 15 94 28 206 13 112 33 264 44 338 11 74 20 141 20 148 0 7 -15 12 -41
12 -34 0 -49 -7 -86 -40 -25 -22 -63 -45 -84 -50 -25 -7 -324 -10 -866 -8
-794 3 -829 4 -856 22 -15 10 -35 32 -43 47 -13 25 -20 29 -59 29 -38 0 -45
-3 -50 -22z"/>
<path d="M9766 6672 c-38 -26 -103 -78 -144 -117 -73 -70 -74 -71 -95 -158
l-22 -88 -105 -47 c-97 -45 -221 -112 -262 -144 -16 -11 -16 -18 -5 -55 7 -23
15 -44 18 -47 3 -4 57 18 120 48 116 55 187 81 195 74 6 -7 -454 -2142 -475
-2203 -39 -110 -90 -151 -230 -184 -46 -11 -85 -21 -86 -23 -2 -2 -6 -26 -10
-55 l-7 -52 54 5 c29 2 235 14 458 25 223 11 408 23 411 27 4 4 9 28 12 54 l6
46 -62 7 c-180 18 -227 46 -227 132 0 40 123 700 133 709 2 2 24 -3 49 -11 26
-7 77 -17 115 -20 59 -6 79 -3 148 20 372 124 724 431 884 768 83 175 121 335
121 506 -1 301 -118 470 -370 532 -82 21 -361 18 -474 -5 -48 -9 -90 -15 -93
-13 -2 3 11 71 30 151 32 139 33 147 16 156 -26 14 -27 14 -103 -38z m456
-450 c139 -68 198 -190 198 -407 0 -370 -233 -829 -501 -987 -84 -50 -146 -64
-215 -49 -60 14 -170 82 -186 115 -7 17 22 176 122 666 72 355 133 653 136
662 7 25 90 37 245 35 130 -2 137 -3 201 -35z"/>
<path d="M9893 6118 c-5 -7 -60 -263 -122 -568 -62 -305 -115 -565 -118 -577
-4 -17 3 -27 29 -43 70 -43 144 -20 249 77 179 165 322 456 350 711 26 234
-26 365 -160 402 -53 15 -216 13 -228 -2z"/>
<path d="M7671 6410 c-48 -23 -88 -55 -160 -128 -96 -97 -211 -247 -211 -273
0 -8 15 -31 33 -53 l33 -38 29 38 c47 63 148 165 178 181 37 19 53 6 72 -61
46 -159 155 -1158 155 -1417 l0 -65 -75 -95 c-233 -291 -500 -544 -775 -734
-47 -32 -86 -59 -87 -60 -2 -1 22 -71 32 -92 0 -1 95 23 210 53 l210 54 45 52
c85 96 306 377 436 555 426 581 945 1392 1044 1630 85 204 73 393 -29 460 -84
56 -220 -6 -250 -114 -8 -29 -6 -47 9 -91 62 -176 42 -306 -91 -582 -82 -170
-382 -668 -408 -678 -4 -1 -8 21 -9 50 -11 264 -86 1024 -117 1173 -50 240
-127 306 -274 235z"/>
</g>
</svg>
